%TF.GenerationSoftware,KiCad,Pcbnew,5.1.9-73d0e3b20d~88~ubuntu18.04.1*%
%TF.CreationDate,2021-03-07T14:56:15+02:00*%
%TF.ProjectId,oskar_optocoupler_carrier_pcb,6f736b61-725f-46f7-9074-6f636f75706c,rev a*%
%TF.SameCoordinates,Original*%
%TF.FileFunction,Legend,Bot*%
%TF.FilePolarity,Positive*%
%FSLAX46Y46*%
G04 Gerber Fmt 4.6, Leading zero omitted, Abs format (unit mm)*
G04 Created by KiCad (PCBNEW 5.1.9-73d0e3b20d~88~ubuntu18.04.1) date 2021-03-07 14:56:15*
%MOMM*%
%LPD*%
G01*
G04 APERTURE LIST*
%ADD10C,0.150000*%
%ADD11C,0.120000*%
G04 APERTURE END LIST*
D10*
X152193047Y-79970380D02*
X152193047Y-80684666D01*
X152240666Y-80827523D01*
X152335904Y-80922761D01*
X152478761Y-80970380D01*
X152574000Y-80970380D01*
X151240666Y-80970380D02*
X151716857Y-80970380D01*
X151716857Y-79970380D01*
X150335904Y-80875142D02*
X150383523Y-80922761D01*
X150526380Y-80970380D01*
X150621619Y-80970380D01*
X150764476Y-80922761D01*
X150859714Y-80827523D01*
X150907333Y-80732285D01*
X150954952Y-80541809D01*
X150954952Y-80398952D01*
X150907333Y-80208476D01*
X150859714Y-80113238D01*
X150764476Y-80018000D01*
X150621619Y-79970380D01*
X150526380Y-79970380D01*
X150383523Y-80018000D01*
X150335904Y-80065619D01*
X149621619Y-79970380D02*
X149621619Y-80684666D01*
X149669238Y-80827523D01*
X149764476Y-80922761D01*
X149907333Y-80970380D01*
X150002571Y-80970380D01*
X148669238Y-80970380D02*
X149145428Y-80970380D01*
X149145428Y-79970380D01*
X147764476Y-80875142D02*
X147812095Y-80922761D01*
X147954952Y-80970380D01*
X148050190Y-80970380D01*
X148193047Y-80922761D01*
X148288285Y-80827523D01*
X148335904Y-80732285D01*
X148383523Y-80541809D01*
X148383523Y-80398952D01*
X148335904Y-80208476D01*
X148288285Y-80113238D01*
X148193047Y-80018000D01*
X148050190Y-79970380D01*
X147954952Y-79970380D01*
X147812095Y-80018000D01*
X147764476Y-80065619D01*
X147050190Y-79970380D02*
X147050190Y-80684666D01*
X147097809Y-80827523D01*
X147193047Y-80922761D01*
X147335904Y-80970380D01*
X147431142Y-80970380D01*
X146097809Y-80970380D02*
X146574000Y-80970380D01*
X146574000Y-79970380D01*
X145193047Y-80875142D02*
X145240666Y-80922761D01*
X145383523Y-80970380D01*
X145478761Y-80970380D01*
X145621619Y-80922761D01*
X145716857Y-80827523D01*
X145764476Y-80732285D01*
X145812095Y-80541809D01*
X145812095Y-80398952D01*
X145764476Y-80208476D01*
X145716857Y-80113238D01*
X145621619Y-80018000D01*
X145478761Y-79970380D01*
X145383523Y-79970380D01*
X145240666Y-80018000D01*
X145193047Y-80065619D01*
X144478761Y-79970380D02*
X144478761Y-80684666D01*
X144526380Y-80827523D01*
X144621619Y-80922761D01*
X144764476Y-80970380D01*
X144859714Y-80970380D01*
X143526380Y-80970380D02*
X144002571Y-80970380D01*
X144002571Y-79970380D01*
X142621619Y-80875142D02*
X142669238Y-80922761D01*
X142812095Y-80970380D01*
X142907333Y-80970380D01*
X143050190Y-80922761D01*
X143145428Y-80827523D01*
X143193047Y-80732285D01*
X143240666Y-80541809D01*
X143240666Y-80398952D01*
X143193047Y-80208476D01*
X143145428Y-80113238D01*
X143050190Y-80018000D01*
X142907333Y-79970380D01*
X142812095Y-79970380D01*
X142669238Y-80018000D01*
X142621619Y-80065619D01*
D11*
%TO.C,U1*%
X140861000Y-105863000D02*
X140861000Y-111863000D01*
X140861000Y-111863000D02*
X154361000Y-111859000D01*
X154361000Y-105859000D02*
X154361000Y-111859000D01*
X140861000Y-105863000D02*
X154361000Y-105859000D01*
D10*
X139646619Y-110172952D02*
X140646619Y-110172952D01*
X139646619Y-109601523D02*
X140218047Y-110030095D01*
X140646619Y-109601523D02*
X140075190Y-110172952D01*
X140646619Y-109315809D02*
X140646619Y-108744380D01*
X139646619Y-109030095D02*
X140646619Y-109030095D01*
X139646619Y-108411047D02*
X140646619Y-108411047D01*
X139646619Y-107363428D02*
X140122809Y-107696761D01*
X139646619Y-107934857D02*
X140646619Y-107934857D01*
X140646619Y-107553904D01*
X140599000Y-107458666D01*
X140551380Y-107411047D01*
X140456142Y-107363428D01*
X140313285Y-107363428D01*
X140218047Y-107411047D01*
X140170428Y-107458666D01*
X140122809Y-107553904D01*
X140122809Y-107934857D01*
%TD*%
M02*
