%TF.GenerationSoftware,KiCad,Pcbnew,5.1.9-73d0e3b20d~88~ubuntu18.04.1*%
%TF.CreationDate,2021-03-07T14:56:15+02:00*%
%TF.ProjectId,oskar_optocoupler_carrier_pcb,6f736b61-725f-46f7-9074-6f636f75706c,rev a*%
%TF.SameCoordinates,Original*%
%TF.FileFunction,Copper,L1,Top*%
%TF.FilePolarity,Positive*%
%FSLAX46Y46*%
G04 Gerber Fmt 4.6, Leading zero omitted, Abs format (unit mm)*
G04 Created by KiCad (PCBNEW 5.1.9-73d0e3b20d~88~ubuntu18.04.1) date 2021-03-07 14:56:15*
%MOMM*%
%LPD*%
G01*
G04 APERTURE LIST*
%TA.AperFunction,ConnectorPad*%
%ADD10C,8.000000*%
%TD*%
%TA.AperFunction,ComponentPad*%
%ADD11C,4.400000*%
%TD*%
%TA.AperFunction,ComponentPad*%
%ADD12C,1.524000*%
%TD*%
%TA.AperFunction,ComponentPad*%
%ADD13O,1.740000X2.190000*%
%TD*%
%TA.AperFunction,ComponentPad*%
%ADD14O,1.600000X1.600000*%
%TD*%
%TA.AperFunction,ComponentPad*%
%ADD15C,1.600000*%
%TD*%
%TA.AperFunction,Conductor*%
%ADD16C,0.250000*%
%TD*%
%TA.AperFunction,Conductor*%
%ADD17C,0.254000*%
%TD*%
%TA.AperFunction,Conductor*%
%ADD18C,0.100000*%
%TD*%
G04 APERTURE END LIST*
D10*
%TO.P,J2,1*%
%TO.N,GND*%
X147592000Y-87992000D03*
D11*
X147592000Y-87992000D03*
%TD*%
D12*
%TO.P,U1,4*%
%TO.N,GND*%
X152361000Y-109959000D03*
%TO.P,U1,3*%
%TO.N,/Output*%
X152361000Y-107419000D03*
%TO.P,U1,2*%
%TO.N,GND*%
X143361000Y-107419000D03*
%TO.P,U1,1*%
%TO.N,Net-(R1-Pad1)*%
X143361000Y-109959000D03*
%TD*%
D13*
%TO.P,J1,3*%
%TO.N,GND*%
X150114000Y-99060000D03*
%TO.P,J1,2*%
%TO.N,/Output*%
X147574000Y-99060000D03*
%TO.P,J1,1*%
%TO.N,+5V*%
%TA.AperFunction,ComponentPad*%
G36*
G01*
X144164000Y-99905001D02*
X144164000Y-98214999D01*
G75*
G02*
X144413999Y-97965000I249999J0D01*
G01*
X145654001Y-97965000D01*
G75*
G02*
X145904000Y-98214999I0J-249999D01*
G01*
X145904000Y-99905001D01*
G75*
G02*
X145654001Y-100155000I-249999J0D01*
G01*
X144413999Y-100155000D01*
G75*
G02*
X144164000Y-99905001I0J249999D01*
G01*
G37*
%TD.AperFunction*%
%TD*%
D14*
%TO.P,R2,2*%
%TO.N,+5V*%
X154432000Y-94488000D03*
D15*
%TO.P,R2,1*%
%TO.N,/Output*%
X154432000Y-104648000D03*
%TD*%
D14*
%TO.P,R1,2*%
%TO.N,+5V*%
X140970000Y-94488000D03*
D15*
%TO.P,R1,1*%
%TO.N,Net-(R1-Pad1)*%
X140970000Y-104648000D03*
%TD*%
D16*
%TO.N,/Output*%
X152361000Y-107419000D02*
X153947000Y-107419000D01*
X154432000Y-106934000D02*
X154432000Y-104648000D01*
X153947000Y-107419000D02*
X154432000Y-106934000D01*
X153162000Y-104648000D02*
X147574000Y-99060000D01*
X154432000Y-104648000D02*
X153162000Y-104648000D01*
%TO.N,Net-(R1-Pad1)*%
X140970000Y-107568000D02*
X140970000Y-104648000D01*
X143361000Y-109959000D02*
X140970000Y-107568000D01*
%TO.N,+5V*%
X145034000Y-98552000D02*
X140970000Y-94488000D01*
X145034000Y-99060000D02*
X145034000Y-98552000D01*
X140970000Y-94488000D02*
X154432000Y-94488000D01*
%TD*%
D17*
%TO.N,GND*%
X156465000Y-111865000D02*
X138719000Y-111865000D01*
X138719000Y-104506665D01*
X139535000Y-104506665D01*
X139535000Y-104789335D01*
X139590147Y-105066574D01*
X139698320Y-105327727D01*
X139855363Y-105562759D01*
X140055241Y-105762637D01*
X140210001Y-105866044D01*
X140210000Y-107530677D01*
X140206324Y-107568000D01*
X140210000Y-107605322D01*
X140210000Y-107605332D01*
X140220997Y-107716985D01*
X140259306Y-107843276D01*
X140264454Y-107860246D01*
X140335026Y-107992276D01*
X140359439Y-108022023D01*
X140429999Y-108108001D01*
X140459003Y-108131804D01*
X141994628Y-109667430D01*
X141964000Y-109821408D01*
X141964000Y-110096592D01*
X142017686Y-110366490D01*
X142122995Y-110620727D01*
X142275880Y-110849535D01*
X142470465Y-111044120D01*
X142699273Y-111197005D01*
X142953510Y-111302314D01*
X143223408Y-111356000D01*
X143498592Y-111356000D01*
X143768490Y-111302314D01*
X144022727Y-111197005D01*
X144251535Y-111044120D01*
X144371090Y-110924565D01*
X151575040Y-110924565D01*
X151642020Y-111164656D01*
X151891048Y-111281756D01*
X152158135Y-111348023D01*
X152433017Y-111360910D01*
X152705133Y-111319922D01*
X152964023Y-111226636D01*
X153079980Y-111164656D01*
X153146960Y-110924565D01*
X152361000Y-110138605D01*
X151575040Y-110924565D01*
X144371090Y-110924565D01*
X144446120Y-110849535D01*
X144599005Y-110620727D01*
X144704314Y-110366490D01*
X144758000Y-110096592D01*
X144758000Y-110031017D01*
X150959090Y-110031017D01*
X151000078Y-110303133D01*
X151093364Y-110562023D01*
X151155344Y-110677980D01*
X151395435Y-110744960D01*
X152181395Y-109959000D01*
X152540605Y-109959000D01*
X153326565Y-110744960D01*
X153566656Y-110677980D01*
X153683756Y-110428952D01*
X153750023Y-110161865D01*
X153762910Y-109886983D01*
X153721922Y-109614867D01*
X153628636Y-109355977D01*
X153566656Y-109240020D01*
X153326565Y-109173040D01*
X152540605Y-109959000D01*
X152181395Y-109959000D01*
X151395435Y-109173040D01*
X151155344Y-109240020D01*
X151038244Y-109489048D01*
X150971977Y-109756135D01*
X150959090Y-110031017D01*
X144758000Y-110031017D01*
X144758000Y-109821408D01*
X144704314Y-109551510D01*
X144599005Y-109297273D01*
X144446120Y-109068465D01*
X144251535Y-108873880D01*
X144022727Y-108720995D01*
X143951057Y-108691308D01*
X143964023Y-108686636D01*
X144079980Y-108624656D01*
X144146960Y-108384565D01*
X143361000Y-107598605D01*
X143346858Y-107612748D01*
X143167253Y-107433143D01*
X143181395Y-107419000D01*
X143540605Y-107419000D01*
X144326565Y-108204960D01*
X144566656Y-108137980D01*
X144683756Y-107888952D01*
X144750023Y-107621865D01*
X144762910Y-107346983D01*
X144721922Y-107074867D01*
X144628636Y-106815977D01*
X144566656Y-106700020D01*
X144326565Y-106633040D01*
X143540605Y-107419000D01*
X143181395Y-107419000D01*
X142395435Y-106633040D01*
X142155344Y-106700020D01*
X142038244Y-106949048D01*
X141971977Y-107216135D01*
X141959481Y-107482680D01*
X141730000Y-107253199D01*
X141730000Y-106453435D01*
X142575040Y-106453435D01*
X143361000Y-107239395D01*
X144146960Y-106453435D01*
X144079980Y-106213344D01*
X143830952Y-106096244D01*
X143563865Y-106029977D01*
X143288983Y-106017090D01*
X143016867Y-106058078D01*
X142757977Y-106151364D01*
X142642020Y-106213344D01*
X142575040Y-106453435D01*
X141730000Y-106453435D01*
X141730000Y-105866043D01*
X141884759Y-105762637D01*
X142084637Y-105562759D01*
X142241680Y-105327727D01*
X142349853Y-105066574D01*
X142405000Y-104789335D01*
X142405000Y-104506665D01*
X142349853Y-104229426D01*
X142241680Y-103968273D01*
X142084637Y-103733241D01*
X141884759Y-103533363D01*
X141649727Y-103376320D01*
X141388574Y-103268147D01*
X141111335Y-103213000D01*
X140828665Y-103213000D01*
X140551426Y-103268147D01*
X140290273Y-103376320D01*
X140055241Y-103533363D01*
X139855363Y-103733241D01*
X139698320Y-103968273D01*
X139590147Y-104229426D01*
X139535000Y-104506665D01*
X138719000Y-104506665D01*
X138719000Y-94346665D01*
X139535000Y-94346665D01*
X139535000Y-94629335D01*
X139590147Y-94906574D01*
X139698320Y-95167727D01*
X139855363Y-95402759D01*
X140055241Y-95602637D01*
X140290273Y-95759680D01*
X140551426Y-95867853D01*
X140828665Y-95923000D01*
X141111335Y-95923000D01*
X141293887Y-95886688D01*
X143534560Y-98127361D01*
X143525928Y-98214999D01*
X143525928Y-99905001D01*
X143542992Y-100078255D01*
X143593528Y-100244851D01*
X143675595Y-100398387D01*
X143786038Y-100532962D01*
X143920613Y-100643405D01*
X144074149Y-100725472D01*
X144240745Y-100776008D01*
X144413999Y-100793072D01*
X145654001Y-100793072D01*
X145827255Y-100776008D01*
X145993851Y-100725472D01*
X146147387Y-100643405D01*
X146281962Y-100532962D01*
X146392405Y-100398387D01*
X146450934Y-100288886D01*
X146504655Y-100354345D01*
X146733822Y-100542417D01*
X146995276Y-100682166D01*
X147278969Y-100768224D01*
X147574000Y-100797282D01*
X147869032Y-100768224D01*
X148128664Y-100689465D01*
X152598205Y-105159008D01*
X152621999Y-105188001D01*
X152650992Y-105211795D01*
X152650996Y-105211799D01*
X152721685Y-105269811D01*
X152737724Y-105282974D01*
X152869753Y-105353546D01*
X153013014Y-105397003D01*
X153124667Y-105408000D01*
X153124676Y-105408000D01*
X153161999Y-105411676D01*
X153199322Y-105408000D01*
X153213957Y-105408000D01*
X153317363Y-105562759D01*
X153517241Y-105762637D01*
X153672000Y-105866044D01*
X153672000Y-106619199D01*
X153632199Y-106659000D01*
X153533341Y-106659000D01*
X153446120Y-106528465D01*
X153251535Y-106333880D01*
X153022727Y-106180995D01*
X152768490Y-106075686D01*
X152498592Y-106022000D01*
X152223408Y-106022000D01*
X151953510Y-106075686D01*
X151699273Y-106180995D01*
X151470465Y-106333880D01*
X151275880Y-106528465D01*
X151122995Y-106757273D01*
X151017686Y-107011510D01*
X150964000Y-107281408D01*
X150964000Y-107556592D01*
X151017686Y-107826490D01*
X151122995Y-108080727D01*
X151275880Y-108309535D01*
X151470465Y-108504120D01*
X151699273Y-108657005D01*
X151770943Y-108686692D01*
X151757977Y-108691364D01*
X151642020Y-108753344D01*
X151575040Y-108993435D01*
X152361000Y-109779395D01*
X153146960Y-108993435D01*
X153079980Y-108753344D01*
X152944240Y-108689515D01*
X153022727Y-108657005D01*
X153251535Y-108504120D01*
X153446120Y-108309535D01*
X153533341Y-108179000D01*
X153909678Y-108179000D01*
X153947000Y-108182676D01*
X153984322Y-108179000D01*
X153984333Y-108179000D01*
X154095986Y-108168003D01*
X154239247Y-108124546D01*
X154371276Y-108053974D01*
X154487001Y-107959001D01*
X154510804Y-107929997D01*
X154942998Y-107497803D01*
X154972001Y-107474001D01*
X155066974Y-107358276D01*
X155137546Y-107226247D01*
X155181003Y-107082986D01*
X155192000Y-106971333D01*
X155192000Y-106971332D01*
X155195677Y-106934000D01*
X155192000Y-106896667D01*
X155192000Y-105866043D01*
X155346759Y-105762637D01*
X155546637Y-105562759D01*
X155703680Y-105327727D01*
X155811853Y-105066574D01*
X155867000Y-104789335D01*
X155867000Y-104506665D01*
X155811853Y-104229426D01*
X155703680Y-103968273D01*
X155546637Y-103733241D01*
X155346759Y-103533363D01*
X155111727Y-103376320D01*
X154850574Y-103268147D01*
X154573335Y-103213000D01*
X154290665Y-103213000D01*
X154013426Y-103268147D01*
X153752273Y-103376320D01*
X153517241Y-103533363D01*
X153319703Y-103730901D01*
X150241002Y-100652200D01*
X150241002Y-100625247D01*
X150474031Y-100746302D01*
X150561591Y-100729551D01*
X150834809Y-100614474D01*
X151080326Y-100448306D01*
X151288708Y-100237433D01*
X151451947Y-99989958D01*
X151563769Y-99715392D01*
X151619877Y-99424286D01*
X151464376Y-99187000D01*
X150241000Y-99187000D01*
X150241000Y-99207000D01*
X149987000Y-99207000D01*
X149987000Y-99187000D01*
X149967000Y-99187000D01*
X149967000Y-98933000D01*
X149987000Y-98933000D01*
X149987000Y-97494754D01*
X150241000Y-97494754D01*
X150241000Y-98933000D01*
X151464376Y-98933000D01*
X151619877Y-98695714D01*
X151563769Y-98404608D01*
X151451947Y-98130042D01*
X151288708Y-97882567D01*
X151080326Y-97671694D01*
X150834809Y-97505526D01*
X150561591Y-97390449D01*
X150474031Y-97373698D01*
X150241000Y-97494754D01*
X149987000Y-97494754D01*
X149753969Y-97373698D01*
X149666409Y-97390449D01*
X149393191Y-97505526D01*
X149147674Y-97671694D01*
X148939292Y-97882567D01*
X148846560Y-98023152D01*
X148831417Y-97994821D01*
X148643345Y-97765655D01*
X148414178Y-97577583D01*
X148152724Y-97437834D01*
X147869031Y-97351776D01*
X147574000Y-97322718D01*
X147278968Y-97351776D01*
X146995275Y-97437834D01*
X146733821Y-97577583D01*
X146504655Y-97765655D01*
X146450935Y-97831114D01*
X146392405Y-97721613D01*
X146281962Y-97587038D01*
X146147387Y-97476595D01*
X145993851Y-97394528D01*
X145827255Y-97343992D01*
X145654001Y-97326928D01*
X144883730Y-97326928D01*
X142804801Y-95248000D01*
X153213957Y-95248000D01*
X153317363Y-95402759D01*
X153517241Y-95602637D01*
X153752273Y-95759680D01*
X154013426Y-95867853D01*
X154290665Y-95923000D01*
X154573335Y-95923000D01*
X154850574Y-95867853D01*
X155111727Y-95759680D01*
X155346759Y-95602637D01*
X155546637Y-95402759D01*
X155703680Y-95167727D01*
X155811853Y-94906574D01*
X155867000Y-94629335D01*
X155867000Y-94346665D01*
X155811853Y-94069426D01*
X155703680Y-93808273D01*
X155546637Y-93573241D01*
X155346759Y-93373363D01*
X155111727Y-93216320D01*
X154850574Y-93108147D01*
X154573335Y-93053000D01*
X154290665Y-93053000D01*
X154013426Y-93108147D01*
X153752273Y-93216320D01*
X153517241Y-93373363D01*
X153317363Y-93573241D01*
X153213957Y-93728000D01*
X142188043Y-93728000D01*
X142084637Y-93573241D01*
X141884759Y-93373363D01*
X141649727Y-93216320D01*
X141388574Y-93108147D01*
X141111335Y-93053000D01*
X140828665Y-93053000D01*
X140551426Y-93108147D01*
X140290273Y-93216320D01*
X140055241Y-93373363D01*
X139855363Y-93573241D01*
X139698320Y-93808273D01*
X139590147Y-94069426D01*
X139535000Y-94346665D01*
X138719000Y-94346665D01*
X138719000Y-91261580D01*
X144502025Y-91261580D01*
X144958197Y-91833185D01*
X145758183Y-92273207D01*
X146628641Y-92548704D01*
X147536121Y-92649091D01*
X148445748Y-92570508D01*
X149322566Y-92315975D01*
X150132879Y-91895275D01*
X150225803Y-91833185D01*
X150681975Y-91261580D01*
X147592000Y-88171605D01*
X144502025Y-91261580D01*
X138719000Y-91261580D01*
X138719000Y-87936121D01*
X142934909Y-87936121D01*
X143013492Y-88845748D01*
X143268025Y-89722566D01*
X143688725Y-90532879D01*
X143750815Y-90625803D01*
X144322420Y-91081975D01*
X147412395Y-87992000D01*
X147771605Y-87992000D01*
X150861580Y-91081975D01*
X151433185Y-90625803D01*
X151873207Y-89825817D01*
X152148704Y-88955359D01*
X152249091Y-88047879D01*
X152170508Y-87138252D01*
X151915975Y-86261434D01*
X151495275Y-85451121D01*
X151433185Y-85358197D01*
X150861580Y-84902025D01*
X147771605Y-87992000D01*
X147412395Y-87992000D01*
X144322420Y-84902025D01*
X143750815Y-85358197D01*
X143310793Y-86158183D01*
X143035296Y-87028641D01*
X142934909Y-87936121D01*
X138719000Y-87936121D01*
X138719000Y-84722420D01*
X144502025Y-84722420D01*
X147592000Y-87812395D01*
X150681975Y-84722420D01*
X150225803Y-84150815D01*
X149425817Y-83710793D01*
X148555359Y-83435296D01*
X147647879Y-83334909D01*
X146738252Y-83413492D01*
X145861434Y-83668025D01*
X145051121Y-84088725D01*
X144958197Y-84150815D01*
X144502025Y-84722420D01*
X138719000Y-84722420D01*
X138719000Y-79119000D01*
X156465000Y-79119000D01*
X156465000Y-111865000D01*
%TA.AperFunction,Conductor*%
D18*
G36*
X156465000Y-111865000D02*
G01*
X138719000Y-111865000D01*
X138719000Y-104506665D01*
X139535000Y-104506665D01*
X139535000Y-104789335D01*
X139590147Y-105066574D01*
X139698320Y-105327727D01*
X139855363Y-105562759D01*
X140055241Y-105762637D01*
X140210001Y-105866044D01*
X140210000Y-107530677D01*
X140206324Y-107568000D01*
X140210000Y-107605322D01*
X140210000Y-107605332D01*
X140220997Y-107716985D01*
X140259306Y-107843276D01*
X140264454Y-107860246D01*
X140335026Y-107992276D01*
X140359439Y-108022023D01*
X140429999Y-108108001D01*
X140459003Y-108131804D01*
X141994628Y-109667430D01*
X141964000Y-109821408D01*
X141964000Y-110096592D01*
X142017686Y-110366490D01*
X142122995Y-110620727D01*
X142275880Y-110849535D01*
X142470465Y-111044120D01*
X142699273Y-111197005D01*
X142953510Y-111302314D01*
X143223408Y-111356000D01*
X143498592Y-111356000D01*
X143768490Y-111302314D01*
X144022727Y-111197005D01*
X144251535Y-111044120D01*
X144371090Y-110924565D01*
X151575040Y-110924565D01*
X151642020Y-111164656D01*
X151891048Y-111281756D01*
X152158135Y-111348023D01*
X152433017Y-111360910D01*
X152705133Y-111319922D01*
X152964023Y-111226636D01*
X153079980Y-111164656D01*
X153146960Y-110924565D01*
X152361000Y-110138605D01*
X151575040Y-110924565D01*
X144371090Y-110924565D01*
X144446120Y-110849535D01*
X144599005Y-110620727D01*
X144704314Y-110366490D01*
X144758000Y-110096592D01*
X144758000Y-110031017D01*
X150959090Y-110031017D01*
X151000078Y-110303133D01*
X151093364Y-110562023D01*
X151155344Y-110677980D01*
X151395435Y-110744960D01*
X152181395Y-109959000D01*
X152540605Y-109959000D01*
X153326565Y-110744960D01*
X153566656Y-110677980D01*
X153683756Y-110428952D01*
X153750023Y-110161865D01*
X153762910Y-109886983D01*
X153721922Y-109614867D01*
X153628636Y-109355977D01*
X153566656Y-109240020D01*
X153326565Y-109173040D01*
X152540605Y-109959000D01*
X152181395Y-109959000D01*
X151395435Y-109173040D01*
X151155344Y-109240020D01*
X151038244Y-109489048D01*
X150971977Y-109756135D01*
X150959090Y-110031017D01*
X144758000Y-110031017D01*
X144758000Y-109821408D01*
X144704314Y-109551510D01*
X144599005Y-109297273D01*
X144446120Y-109068465D01*
X144251535Y-108873880D01*
X144022727Y-108720995D01*
X143951057Y-108691308D01*
X143964023Y-108686636D01*
X144079980Y-108624656D01*
X144146960Y-108384565D01*
X143361000Y-107598605D01*
X143346858Y-107612748D01*
X143167253Y-107433143D01*
X143181395Y-107419000D01*
X143540605Y-107419000D01*
X144326565Y-108204960D01*
X144566656Y-108137980D01*
X144683756Y-107888952D01*
X144750023Y-107621865D01*
X144762910Y-107346983D01*
X144721922Y-107074867D01*
X144628636Y-106815977D01*
X144566656Y-106700020D01*
X144326565Y-106633040D01*
X143540605Y-107419000D01*
X143181395Y-107419000D01*
X142395435Y-106633040D01*
X142155344Y-106700020D01*
X142038244Y-106949048D01*
X141971977Y-107216135D01*
X141959481Y-107482680D01*
X141730000Y-107253199D01*
X141730000Y-106453435D01*
X142575040Y-106453435D01*
X143361000Y-107239395D01*
X144146960Y-106453435D01*
X144079980Y-106213344D01*
X143830952Y-106096244D01*
X143563865Y-106029977D01*
X143288983Y-106017090D01*
X143016867Y-106058078D01*
X142757977Y-106151364D01*
X142642020Y-106213344D01*
X142575040Y-106453435D01*
X141730000Y-106453435D01*
X141730000Y-105866043D01*
X141884759Y-105762637D01*
X142084637Y-105562759D01*
X142241680Y-105327727D01*
X142349853Y-105066574D01*
X142405000Y-104789335D01*
X142405000Y-104506665D01*
X142349853Y-104229426D01*
X142241680Y-103968273D01*
X142084637Y-103733241D01*
X141884759Y-103533363D01*
X141649727Y-103376320D01*
X141388574Y-103268147D01*
X141111335Y-103213000D01*
X140828665Y-103213000D01*
X140551426Y-103268147D01*
X140290273Y-103376320D01*
X140055241Y-103533363D01*
X139855363Y-103733241D01*
X139698320Y-103968273D01*
X139590147Y-104229426D01*
X139535000Y-104506665D01*
X138719000Y-104506665D01*
X138719000Y-94346665D01*
X139535000Y-94346665D01*
X139535000Y-94629335D01*
X139590147Y-94906574D01*
X139698320Y-95167727D01*
X139855363Y-95402759D01*
X140055241Y-95602637D01*
X140290273Y-95759680D01*
X140551426Y-95867853D01*
X140828665Y-95923000D01*
X141111335Y-95923000D01*
X141293887Y-95886688D01*
X143534560Y-98127361D01*
X143525928Y-98214999D01*
X143525928Y-99905001D01*
X143542992Y-100078255D01*
X143593528Y-100244851D01*
X143675595Y-100398387D01*
X143786038Y-100532962D01*
X143920613Y-100643405D01*
X144074149Y-100725472D01*
X144240745Y-100776008D01*
X144413999Y-100793072D01*
X145654001Y-100793072D01*
X145827255Y-100776008D01*
X145993851Y-100725472D01*
X146147387Y-100643405D01*
X146281962Y-100532962D01*
X146392405Y-100398387D01*
X146450934Y-100288886D01*
X146504655Y-100354345D01*
X146733822Y-100542417D01*
X146995276Y-100682166D01*
X147278969Y-100768224D01*
X147574000Y-100797282D01*
X147869032Y-100768224D01*
X148128664Y-100689465D01*
X152598205Y-105159008D01*
X152621999Y-105188001D01*
X152650992Y-105211795D01*
X152650996Y-105211799D01*
X152721685Y-105269811D01*
X152737724Y-105282974D01*
X152869753Y-105353546D01*
X153013014Y-105397003D01*
X153124667Y-105408000D01*
X153124676Y-105408000D01*
X153161999Y-105411676D01*
X153199322Y-105408000D01*
X153213957Y-105408000D01*
X153317363Y-105562759D01*
X153517241Y-105762637D01*
X153672000Y-105866044D01*
X153672000Y-106619199D01*
X153632199Y-106659000D01*
X153533341Y-106659000D01*
X153446120Y-106528465D01*
X153251535Y-106333880D01*
X153022727Y-106180995D01*
X152768490Y-106075686D01*
X152498592Y-106022000D01*
X152223408Y-106022000D01*
X151953510Y-106075686D01*
X151699273Y-106180995D01*
X151470465Y-106333880D01*
X151275880Y-106528465D01*
X151122995Y-106757273D01*
X151017686Y-107011510D01*
X150964000Y-107281408D01*
X150964000Y-107556592D01*
X151017686Y-107826490D01*
X151122995Y-108080727D01*
X151275880Y-108309535D01*
X151470465Y-108504120D01*
X151699273Y-108657005D01*
X151770943Y-108686692D01*
X151757977Y-108691364D01*
X151642020Y-108753344D01*
X151575040Y-108993435D01*
X152361000Y-109779395D01*
X153146960Y-108993435D01*
X153079980Y-108753344D01*
X152944240Y-108689515D01*
X153022727Y-108657005D01*
X153251535Y-108504120D01*
X153446120Y-108309535D01*
X153533341Y-108179000D01*
X153909678Y-108179000D01*
X153947000Y-108182676D01*
X153984322Y-108179000D01*
X153984333Y-108179000D01*
X154095986Y-108168003D01*
X154239247Y-108124546D01*
X154371276Y-108053974D01*
X154487001Y-107959001D01*
X154510804Y-107929997D01*
X154942998Y-107497803D01*
X154972001Y-107474001D01*
X155066974Y-107358276D01*
X155137546Y-107226247D01*
X155181003Y-107082986D01*
X155192000Y-106971333D01*
X155192000Y-106971332D01*
X155195677Y-106934000D01*
X155192000Y-106896667D01*
X155192000Y-105866043D01*
X155346759Y-105762637D01*
X155546637Y-105562759D01*
X155703680Y-105327727D01*
X155811853Y-105066574D01*
X155867000Y-104789335D01*
X155867000Y-104506665D01*
X155811853Y-104229426D01*
X155703680Y-103968273D01*
X155546637Y-103733241D01*
X155346759Y-103533363D01*
X155111727Y-103376320D01*
X154850574Y-103268147D01*
X154573335Y-103213000D01*
X154290665Y-103213000D01*
X154013426Y-103268147D01*
X153752273Y-103376320D01*
X153517241Y-103533363D01*
X153319703Y-103730901D01*
X150241002Y-100652200D01*
X150241002Y-100625247D01*
X150474031Y-100746302D01*
X150561591Y-100729551D01*
X150834809Y-100614474D01*
X151080326Y-100448306D01*
X151288708Y-100237433D01*
X151451947Y-99989958D01*
X151563769Y-99715392D01*
X151619877Y-99424286D01*
X151464376Y-99187000D01*
X150241000Y-99187000D01*
X150241000Y-99207000D01*
X149987000Y-99207000D01*
X149987000Y-99187000D01*
X149967000Y-99187000D01*
X149967000Y-98933000D01*
X149987000Y-98933000D01*
X149987000Y-97494754D01*
X150241000Y-97494754D01*
X150241000Y-98933000D01*
X151464376Y-98933000D01*
X151619877Y-98695714D01*
X151563769Y-98404608D01*
X151451947Y-98130042D01*
X151288708Y-97882567D01*
X151080326Y-97671694D01*
X150834809Y-97505526D01*
X150561591Y-97390449D01*
X150474031Y-97373698D01*
X150241000Y-97494754D01*
X149987000Y-97494754D01*
X149753969Y-97373698D01*
X149666409Y-97390449D01*
X149393191Y-97505526D01*
X149147674Y-97671694D01*
X148939292Y-97882567D01*
X148846560Y-98023152D01*
X148831417Y-97994821D01*
X148643345Y-97765655D01*
X148414178Y-97577583D01*
X148152724Y-97437834D01*
X147869031Y-97351776D01*
X147574000Y-97322718D01*
X147278968Y-97351776D01*
X146995275Y-97437834D01*
X146733821Y-97577583D01*
X146504655Y-97765655D01*
X146450935Y-97831114D01*
X146392405Y-97721613D01*
X146281962Y-97587038D01*
X146147387Y-97476595D01*
X145993851Y-97394528D01*
X145827255Y-97343992D01*
X145654001Y-97326928D01*
X144883730Y-97326928D01*
X142804801Y-95248000D01*
X153213957Y-95248000D01*
X153317363Y-95402759D01*
X153517241Y-95602637D01*
X153752273Y-95759680D01*
X154013426Y-95867853D01*
X154290665Y-95923000D01*
X154573335Y-95923000D01*
X154850574Y-95867853D01*
X155111727Y-95759680D01*
X155346759Y-95602637D01*
X155546637Y-95402759D01*
X155703680Y-95167727D01*
X155811853Y-94906574D01*
X155867000Y-94629335D01*
X155867000Y-94346665D01*
X155811853Y-94069426D01*
X155703680Y-93808273D01*
X155546637Y-93573241D01*
X155346759Y-93373363D01*
X155111727Y-93216320D01*
X154850574Y-93108147D01*
X154573335Y-93053000D01*
X154290665Y-93053000D01*
X154013426Y-93108147D01*
X153752273Y-93216320D01*
X153517241Y-93373363D01*
X153317363Y-93573241D01*
X153213957Y-93728000D01*
X142188043Y-93728000D01*
X142084637Y-93573241D01*
X141884759Y-93373363D01*
X141649727Y-93216320D01*
X141388574Y-93108147D01*
X141111335Y-93053000D01*
X140828665Y-93053000D01*
X140551426Y-93108147D01*
X140290273Y-93216320D01*
X140055241Y-93373363D01*
X139855363Y-93573241D01*
X139698320Y-93808273D01*
X139590147Y-94069426D01*
X139535000Y-94346665D01*
X138719000Y-94346665D01*
X138719000Y-91261580D01*
X144502025Y-91261580D01*
X144958197Y-91833185D01*
X145758183Y-92273207D01*
X146628641Y-92548704D01*
X147536121Y-92649091D01*
X148445748Y-92570508D01*
X149322566Y-92315975D01*
X150132879Y-91895275D01*
X150225803Y-91833185D01*
X150681975Y-91261580D01*
X147592000Y-88171605D01*
X144502025Y-91261580D01*
X138719000Y-91261580D01*
X138719000Y-87936121D01*
X142934909Y-87936121D01*
X143013492Y-88845748D01*
X143268025Y-89722566D01*
X143688725Y-90532879D01*
X143750815Y-90625803D01*
X144322420Y-91081975D01*
X147412395Y-87992000D01*
X147771605Y-87992000D01*
X150861580Y-91081975D01*
X151433185Y-90625803D01*
X151873207Y-89825817D01*
X152148704Y-88955359D01*
X152249091Y-88047879D01*
X152170508Y-87138252D01*
X151915975Y-86261434D01*
X151495275Y-85451121D01*
X151433185Y-85358197D01*
X150861580Y-84902025D01*
X147771605Y-87992000D01*
X147412395Y-87992000D01*
X144322420Y-84902025D01*
X143750815Y-85358197D01*
X143310793Y-86158183D01*
X143035296Y-87028641D01*
X142934909Y-87936121D01*
X138719000Y-87936121D01*
X138719000Y-84722420D01*
X144502025Y-84722420D01*
X147592000Y-87812395D01*
X150681975Y-84722420D01*
X150225803Y-84150815D01*
X149425817Y-83710793D01*
X148555359Y-83435296D01*
X147647879Y-83334909D01*
X146738252Y-83413492D01*
X145861434Y-83668025D01*
X145051121Y-84088725D01*
X144958197Y-84150815D01*
X144502025Y-84722420D01*
X138719000Y-84722420D01*
X138719000Y-79119000D01*
X156465000Y-79119000D01*
X156465000Y-111865000D01*
G37*
%TD.AperFunction*%
%TD*%
M02*
